<svg width="80" height="24" viewBox="0 0 80 24" fill="none" xmlns="http://www.w3.org/2000/svg">
<circle cx="12" cy="12" r="11.25" stroke="black" stroke-width="1.5"/>
<path d="M46.816 12.256C47.2213 12.32 47.5893 12.4853 47.92 12.752C48.2613 13.0187 48.528 13.3493 48.72 13.744C48.9227 14.1387 49.024 14.56 49.024 15.008C49.024 15.5733 48.88 16.0853 48.592 16.544C48.304 16.992 47.8827 17.3493 47.328 17.616C46.784 17.872 46.1387 18 45.392 18H41.232V6.848H45.232C45.9893 6.848 46.6347 6.976 47.168 7.232C47.7013 7.47733 48.1013 7.81333 48.368 8.24C48.6347 8.66667 48.768 9.14667 48.768 9.68C48.768 10.3413 48.5867 10.8907 48.224 11.328C47.872 11.7547 47.4027 12.064 46.816 12.256ZM42.688 11.664H45.136C45.8187 11.664 46.3467 11.504 46.72 11.184C47.0933 10.864 47.28 10.4213 47.28 9.856C47.28 9.29067 47.0933 8.848 46.72 8.528C46.3467 8.208 45.808 8.048 45.104 8.048H42.688V11.664ZM45.264 16.8C45.9893 16.8 46.5547 16.6293 46.96 16.288C47.3653 15.9467 47.568 15.472 47.568 14.864C47.568 14.2453 47.3547 13.76 46.928 13.408C46.5013 13.0453 45.9307 12.864 45.216 12.864H42.688V16.8H45.264ZM50.5005 13.584C50.5005 12.688 50.6818 11.904 51.0445 11.232C51.4072 10.5493 51.9032 10.0213 52.5325 9.648C53.1725 9.27467 53.8818 9.088 54.6605 9.088C55.4285 9.088 56.0952 9.25333 56.6605 9.584C57.2258 9.91467 57.6472 10.3307 57.9245 10.832V9.232H59.3965V18H57.9245V16.368C57.6365 16.88 57.2045 17.3067 56.6285 17.648C56.0632 17.9787 55.4018 18.144 54.6445 18.144C53.8658 18.144 53.1618 17.952 52.5325 17.568C51.9032 17.184 51.4072 16.6453 51.0445 15.952C50.6818 15.2587 50.5005 14.4693 50.5005 13.584ZM57.9245 13.6C57.9245 12.9387 57.7912 12.3627 57.5245 11.872C57.2578 11.3813 56.8952 11.008 56.4365 10.752C55.9885 10.4853 55.4925 10.352 54.9485 10.352C54.4045 10.352 53.9085 10.48 53.4605 10.736C53.0125 10.992 52.6552 11.3653 52.3885 11.856C52.1218 12.3467 51.9885 12.9227 51.9885 13.584C51.9885 14.256 52.1218 14.8427 52.3885 15.344C52.6552 15.8347 53.0125 16.2133 53.4605 16.48C53.9085 16.736 54.4045 16.864 54.9485 16.864C55.4925 16.864 55.9885 16.736 56.4365 16.48C56.8952 16.2133 57.2578 15.8347 57.5245 15.344C57.7912 14.8427 57.9245 14.2613 57.9245 13.6ZM66.129 9.072C67.1957 9.072 68.0597 9.39733 68.721 10.048C69.3823 10.688 69.713 11.616 69.713 12.832V18H68.273V13.04C68.273 12.1653 68.0543 11.4987 67.617 11.04C67.1797 10.5707 66.5823 10.336 65.825 10.336C65.057 10.336 64.4437 10.576 63.985 11.056C63.537 11.536 63.313 12.2347 63.313 13.152V18H61.857V9.232H63.313V10.48C63.601 10.032 63.9903 9.68533 64.481 9.44C64.9823 9.19467 65.5317 9.072 66.129 9.072ZM76.9874 18L73.5474 14.128V18H72.0914V6.16H73.5474V13.12L76.9234 9.232H78.9554L74.8274 13.6L78.9714 18H76.9874Z" fill="black"/>
</svg>
